<?xml version="1.0" standalone="no"?>
<!DOCTYPE svg PUBLIC "-//W3C//DTD SVG 20010904//EN"
 "http://www.w3.org/TR/2001/REC-SVG-20010904/DTD/svg10.dtd">
<svg version="1.0" xmlns="http://www.w3.org/2000/svg"
 width="1440.000000pt" height="1440.000000pt" viewBox="0 0 1440.000000 1440.000000"
 preserveAspectRatio="xMidYMid meet">
<metadata>
Created by potrace 1.14, written by Peter Selinger 2001-2017
</metadata>
<g transform="translate(0.000000,1440.000000) scale(0.100000,-0.100000)"
fill="#000000" stroke="none">
<path d="M7092 11008 c-472 -535 -784 -1146 -866 -1701 -19 -123 -22 -400 -6
-522 25 -192 97 -424 290 -935 191 -504 298 -839 370 -1162 55 -252 100 -620
100 -830 l0 -88 -173 0 -174 0 -6 158 c-18 424 -105 821 -247 1120 -104 218
-197 350 -364 518 -238 238 -450 334 -738 334 -95 0 -122 -4 -199 -30 -245
-82 -443 -232 -580 -439 -74 -111 -117 -211 -151 -349 -30 -118 -32 -388 -5
-505 45 -189 129 -343 258 -469 118 -115 218 -178 395 -248 69 -28 225 -70
257 -70 10 0 7 24 -12 93 -32 121 -36 312 -7 397 49 147 125 235 244 281 48
19 77 23 177 24 114 0 123 -2 186 -31 158 -75 279 -247 353 -499 12 -38 56
-263 56 -282 0 -2 -130 -3 -290 -3 l-290 0 0 -320 0 -320 590 0 590 0 0 -38
c0 -62 -37 -191 -79 -277 -84 -171 -300 -375 -419 -394 l-33 -6 45 -93 c90
-184 260 -307 432 -313 l51 -2 17 -91 c21 -112 80 -271 134 -362 51 -88 189
-274 202 -274 13 0 141 173 198 267 55 92 116 254 138 369 l17 91 51 2 c114 4
218 54 318 153 53 53 78 88 114 160 l45 93 -33 6 c-119 21 -335 223 -418 393
-43 87 -80 216 -80 278 l0 38 590 0 590 0 0 320 0 320 -285 -1 c-157 -1 -288
0 -290 3 -7 7 15 140 40 238 71 280 197 470 365 549 50 23 66 26 186 26 l130
0 76 -38 c89 -43 136 -92 179 -183 65 -136 74 -295 26 -481 -14 -57 -19 -93
-13 -93 29 0 219 52 276 75 167 69 323 173 421 283 101 113 177 266 216 429
14 61 18 116 17 253 -1 154 -4 187 -27 271 -98 372 -358 646 -730 770 -90 31
-96 31 -232 26 -212 -7 -352 -56 -533 -184 -205 -146 -426 -423 -538 -673
-141 -315 -224 -702 -241 -1115 l-6 -160 -173 3 -174 3 0 87 c0 210 45 578
100 830 73 325 176 650 376 1180 190 502 260 730 285 920 15 119 12 397 -7
519 -82 555 -399 1176 -870 1706 -53 59 -100 107 -104 107 -4 0 -53 -51 -108
-112z"/>
</g>
</svg>
